<svg xmlns="http://www.w3.org/2000/svg" xmlns:xlink="http://www.w3.org/1999/xlink" version="1.1" x="0px" y="0px" viewBox="0 0 100 125" style="enable-background:new 0 0 100 100;" xml:space="preserve"><style type="text/css">
	.st0{fill:none;}
</style><path d="M16.23,19.11c-0.04,0.55,0.38,1.03,0.93,1.07c0.02,0,0.05,0,0.07,0c0.52,0,0.96-0.4,1-0.93c0.52-7.41,7-7.06,7.28-7.04  c0.54,0.02,1.03-0.38,1.07-0.93c0.04-0.55-0.37-1.03-0.92-1.07c-0.15-0.01-3.66-0.24-6.4,2.13C17.46,13.9,16.44,16.18,16.23,19.11z   M11.43,18.05c0.08,0.02,0.15,0.03,0.23,0.03c0.46,0,0.87-0.31,0.97-0.78C15.11,6.52,23.53,7.07,23.92,7.1  c0.55,0.06,1.03-0.36,1.08-0.91c0.05-0.55-0.36-1.04-0.91-1.08c-0.1-0.01-10.53-0.79-13.41,11.74  C10.56,17.39,10.9,17.92,11.43,18.05z M90.58,40.62L69.95,14.48c-1.43-1.81-3.6-2.85-5.87-2.85c-0.3,0-0.6,0.02-0.9,0.05  l-34.36,4.16c-1.46,0.18-2.79,0.78-3.88,1.69l-0.03-0.01l0,0.04c-0.92,0.78-1.67,1.76-2.13,2.92L9.56,53.37  c-1.02,2.53-0.57,5.42,1.16,7.53l21.94,26.77c1.43,1.75,3.56,2.74,5.78,2.74c0.34,0,0.69-0.02,1.04-0.07l32.99-4.61  c2.65-0.37,4.91-2.13,5.91-4.62l13.28-33.07C92.65,45.56,92.24,42.72,90.58,40.62z M29.12,18.32l34.36-4.16  c0.2-0.02,0.4-0.04,0.6-0.04c0.04,0,0.08,0.01,0.12,0.01l-7.76,18.7l-0.29,0.19L27.52,18.81C28.01,18.56,28.55,18.39,29.12,18.32z   M63.99,73.45L24.43,57.05L56.34,35.9c0.1,0.04,0.2,0.08,0.3,0.12L63.99,73.45z M59.37,36.96l25.78,8.75  c1.11,0.38,1.49,1.76,0.72,2.65L66.09,71.19L59.37,36.96z M27.11,21.4l26.64,13.22L24.56,53.97L27.11,21.4z M11.88,54.3l12.6-31.38  l-2.57,32.79l-0.5,0.33l-9.88,0.02C11.54,55.47,11.65,54.87,11.88,54.3z M12.65,59.32c-0.19-0.24-0.35-0.49-0.5-0.75l9.39-0.02  l0.94,0.39l10.78,25.53L12.65,59.32z M38.49,85.94c-0.85,0.41-1.88,0.03-2.24-0.84L25.77,60.3l35.31,14.65L38.49,85.94z   M72.12,83.25l-31.41,4.39l23.46-11.41L65,76.58l7.54,6.59C72.4,83.2,72.26,83.23,72.12,83.25z M76.05,80.18  c-0.26,0.66-0.67,1.24-1.16,1.71l-8.08-7.05L66.7,74.3l21.83-25.21L76.05,80.18z M89.47,44.53L58.82,34.13l-0.07-0.33l7.87-18.96  c0.52,0.31,0.98,0.71,1.36,1.19l20.64,26.15c0.57,0.72,0.91,1.57,1.02,2.45C89.58,44.59,89.53,44.55,89.47,44.53z M88.88,83.55  c-0.54-0.12-1.08,0.21-1.2,0.75C85.2,95.08,76.77,94.53,76.39,94.5c-0.54-0.05-1.03,0.36-1.08,0.91c-0.05,0.55,0.36,1.04,0.91,1.08  c0.01,0,0.16,0.01,0.42,0.01c1.99,0,10.44-0.67,12.99-11.76C89.75,84.21,89.42,83.68,88.88,83.55z M84.08,82.49  c0.04-0.55-0.38-1.03-0.93-1.07c-0.57-0.05-1.03,0.38-1.07,0.93c-0.52,7.41-7.01,7.06-7.28,7.04c-0.54-0.03-1.03,0.38-1.07,0.93  c-0.04,0.55,0.37,1.03,0.92,1.07c0.03,0,0.16,0.01,0.37,0.01c0.99,0,3.78-0.19,6.03-2.14C82.85,87.7,83.87,85.42,84.08,82.49z"/><text x="0" y="115" fill="#000000" font-size="5px" font-weight="bold" font-family="'Helvetica Neue', Helvetica, Arial-Unicode, Arial, Sans-serif">Created by Michelle Lukezic</text><text x="0" y="120" fill="#000000" font-size="5px" font-weight="bold" font-family="'Helvetica Neue', Helvetica, Arial-Unicode, Arial, Sans-serif">from the Noun Project</text></svg>